<svg preserveAspectRatio="none" width="100%" height="100%" overflow="visible" style="display: block;" viewBox="0 0 267.912 213.422" fill="none" xmlns="http://www.w3.org/2000/svg">
<path id="Vector" d="M266.907 194.673C266.907 194.673 267.216 203.139 262.865 202.478C258.514 201.816 248.533 180.547 246.579 170.14C244.624 159.734 230.513 115.226 226.177 101.982C221.84 88.7384 212.066 63.5593 206.642 55.96C201.218 48.3607 176.245 11.6724 157.577 4.95508C138.91 -1.76229 119.375 0.824708 108.512 7.1305C97.65 13.4363 79.8644 36.8662 70.0897 62.0453C60.315 87.2244 54.2443 110.449 50.3344 121.311C46.4246 132.173 39.913 153.443 35.1359 161.909C30.3587 170.376 21.9069 185.398 21.9069 186.045C21.9069 186.045 29.7708 143.433 31.2848 127.102C32.7988 110.772 34.3274 87.9888 32.152 75.1861C29.9766 62.3834 23.3033 38.88 13.8667 37.4101C4.43001 35.9402 0.843497 67.3663 1.00518 75.9945C1.16687 84.6227 0.490729 107.935 3.12182 127.102C6.10568 148.798 17.9382 188.823 35.518 204.286C53.0978 219.749 69.2224 209.048 72.6325 205.594C77.3215 200.846 80.7316 194.893 84.3475 182.796C87.9634 170.699 94.3133 127.587 103 110.625" stroke="var(--stroke-0, #575151)" stroke-width="2" stroke-miterlimit="10"/>
</svg>
