<svg preserveAspectRatio="none" width="100%" height="100%" overflow="visible" style="display: block;" viewBox="0 0 503.691 239.161" fill="none" xmlns="http://www.w3.org/2000/svg">
<path id="Vector" d="M107.551 147.232C107.551 147.232 111.167 107.618 109.55 83.8505C107.934 60.0825 109.521 25.5696 91.4268 11.5616C78.4036 1.47824 61.0296 1.14016 51.4901 3.09511C41.9505 5.05005 36.071 8.29849 26.7372 16.9855C17.4035 25.6725 5.02709 50.0432 3.07215 74.3844C1.1172 98.7257 -0.396776 160.696 3.07215 176.762C6.54107 192.828 16.742 216.272 20.6519 221.255C24.5618 226.238 33.4546 236.013 50.8286 237.747C68.2026 239.482 93.5875 235.366 104.45 232.75C115.312 230.133 148.297 221.138 153.72 198.56C159.144 175.983 159.365 145.6 164.362 126.712C169.36 107.824 179.693 77.7358 190.629 71.577C197.773 67.5495 203.549 67.9757 208.87 71.3565C217.631 76.9126 230.581 97.6233 235.137 107.604C239.694 117.584 251.982 143.528 256.406 155.36C263.153 173.396 268.342 194.43 272.472 205.072C276.603 215.714 279.425 222.225 292.227 222.652C305.03 223.078 328.916 222.431 330.871 215.052C332.826 207.673 333.252 189.006 332.385 174.248C331.517 159.491 326.726 117.158 332.811 102.4C338.896 87.6428 356.697 53.1299 382.317 54.4234C407.937 55.7169 433.322 80.9107 448.741 100.445C464.16 119.98 465.027 128.888 470.01 130.622C474.993 132.357 499.746 137.354 501.7 134.312C503.655 131.269 502.862 112.895 498.011 98.0642C494.513 87.3635 480.725 53.8649 455.032 34.8887C437.217 21.7332 419.519 11.3118 400.117 6.24066C386.065 2.56595 370.675 -1.06466 354.315 2.38957C344.07 4.55029 330.092 10.4445 316.113 22.086C305.736 30.7289 296.137 45.0897 292.242 52.4832C288.347 59.8767 283.129 75.9278 282.908 78.5295" stroke="var(--stroke-0, #575151)" stroke-width="2" stroke-miterlimit="10"/>
</svg>
