<svg width="20" height="26" viewBox="0 0 20 26" fill="none" xmlns="http://www.w3.org/2000/svg">
<rect width="20" height="26" fill="#E5E5E5"/>
<g id="Chimney cake fooldal design 3.0">
<rect width="1920" height="8095" transform="translate(-315 -701)" fill="white"/>
<g id="Group 172">
<path id="Vector" d="M10 1C14.9703 1 19 5.01482 19 9.96666C19 16.1941 10 18.9128 10 25C5.91876 18.7965 1 16.1941 1 9.96666C1 5.01482 5.02975 1 10 1Z" stroke="white" stroke-width="2" stroke-linecap="round" stroke-linejoin="round"/>
<path id="Vector_2" d="M1 25H19" stroke="white" stroke-width="2" stroke-linecap="round" stroke-linejoin="round"/>
<path id="Vector_3" d="M9.83254 13.5706C11.9233 13.5706 13.6182 11.882 13.6182 9.79898C13.6182 7.71596 11.9233 6.02734 9.83254 6.02734C7.74177 6.02734 6.04688 7.71596 6.04688 9.79898C6.04688 11.882 7.74177 13.5706 9.83254 13.5706Z" stroke="white" stroke-width="2" stroke-linecap="round" stroke-linejoin="round"/>
</g>
</g>
</svg>
