<svg preserveAspectRatio="none" width="100%" height="100%" overflow="visible" style="display: block;" viewBox="0 0 15 29.0018" fill="none" xmlns="http://www.w3.org/2000/svg">
<path id="Vector" d="M15 8.45348L10.3997 3.91813H10.396V2.76381C10.396 2.76381 11.087 2.76381 11.1073 2.76017C11.4934 2.72922 11.7964 2.41242 11.7964 2.02461V0.739202C11.7964 0.331366 11.4602 0 11.0463 0C11.0463 0 9.27269 0 7.49908 0C5.72546 0 3.95184 0 3.95184 0C3.538 0 3.20175 0.331366 3.20175 0.739202V2.02461C3.20175 2.41242 3.50474 2.73104 3.89087 2.76017C3.9112 2.76017 4.60217 2.76381 4.60217 2.76381V3.91813H4.59847L0 8.45348V26.9535C0 28.0769 3.48442 29.0018 7.48245 29.0018C7.48799 29.0018 7.49353 29.0018 7.49908 29.0018C7.50462 29.0018 7.51016 29.0018 7.5157 29.0018C11.5137 29.0018 14.9982 28.0769 14.9982 26.9535V8.45348H15Z" fill="var(--fill-0, white)"/>
</svg>
